# xmcd
#
# Track frame offsets: 
#        150
#        66044
#        87765
#        138069
#        209685
#        272458
#
# Disc length: 4421 seconds
#
# Revision: 0
# Processed by: cddbd v1.5.2PL0 Copyright (c) Steve Scherf et al.
# Submitted via: ExactAudioCopy v1.0b1
#
DISCID=4d114306
DTITLE=Oleg Marshev, Vladimir Ziva, South Jutland Symphony - Schumann:
DTITLE=Piano concerto
DYEAR=2009
DGENRE=Classical
TTITLE0=Concerto, piano, a minor   Allegro affettuoso  Op. 54   [Rober
TTITLE0=t Schumann] 
TTITLE1=Concerto, piano, a minor   Intermezzo.  Andantino grazioso - a
TTITLE1=ttacca  Op. 54   [Robert Schumann] 
TTITLE2=Concerto, piano, a minor   Allegro vivace  Op. 54   [Robert Sc
TTITLE2=humann] 
TTITLE3=Introduction and Allegro, piano and orchestra, G Major     Op. 9
TTITLE3=2   [Robert Schumann] 
TTITLE4=Concert allegro with introduction, piano and orchestra, d minor 
TTITLE4=Op. 134   [Robert Schumann] 
TTITLE5=Concerto movement, piano and orchestra, f minor      [Clara (Wie
TTITLE5=ck-) Schumann] 
EXTD=
EXTT0=
EXTT1=
EXTT2=
EXTT3=
EXTT4=
EXTT5=
PLAYORDER=
